<?xml version="1.0" encoding="utf-8"?>
<!-- Generator: Adobe Illustrator 24.1.3, SVG Export Plug-In . SVG Version: 6.00 Build 0)  -->
<svg version="1.1" id="Layer_1" xmlns="http://www.w3.org/2000/svg" xmlns:xlink="http://www.w3.org/1999/xlink" x="0px" y="0px"
	 viewBox="0 0 750 520" style="enable-background:new 0 0 750 520;" xml:space="preserve">
<style type="text/css">
	.st0{fill:url(#SVGID_1_);}
	.st1{fill:none;stroke:#92FF88;}
</style>
<g id="bg" transform="translate(-225 -140)">
	<g id="Rectangle_4754" transform="translate(225 140)">
		<linearGradient id="SVGID_1_" gradientUnits="userSpaceOnUse" x1="734.3036" y1="501.5236" x2="11.3036" y2="15.5236">
			<stop  offset="0" style="stop-color:#162914"/>
			<stop  offset="0.9524" style="stop-color:#274824"/>
		</linearGradient>
		<path class="st0" d="M4,0h742c2.2,0,4,1.8,4,4v512c0,2.2-1.8,4-4,4H4c-2.2,0-4-1.8-4-4V4C0,1.8,1.8,0,4,0z"/>
		<path class="st1" d="M4,0.5h742c1.9,0,3.5,1.6,3.5,3.5v512c0,1.9-1.6,3.5-3.5,3.5H4c-1.9,0-3.5-1.6-3.5-3.5V4
			C0.5,2.1,2.1,0.5,4,0.5z"/>
	</g>
</g>
</svg>
