<?xml version="1.0" encoding="utf-8"?>
<!-- Generator: Adobe Illustrator 24.1.3, SVG Export Plug-In . SVG Version: 6.00 Build 0)  -->
<svg version="1.1" id="ic_zpiv" xmlns="http://www.w3.org/2000/svg" xmlns:xlink="http://www.w3.org/1999/xlink" x="0px" y="0px"
	 viewBox="0 0 24 24" style="enable-background:new 0 0 24 24;" xml:space="preserve">
<style type="text/css">
	.st0{fill:#4F7D4B;}
	.st1{fill:none;}
</style>
<g id="Group_8933">
	<g id="Group_8932">
		<path id="Path_18926" class="st0" d="M12,2C6.5,2,2,6.5,2,12s4.5,10,10,10s10-4.5,10-10S17.5,2,12,2z M12,21.3
			c-5.1,0-9.3-4.1-9.3-9.3S6.9,2.8,12,2.8s9.3,4.1,9.3,9.3S17.1,21.3,12,21.3L12,21.3z"/>
		<path id="Path_18927" class="st0" d="M12,3.5c-4.7,0-8.5,3.8-8.5,8.5s3.8,8.5,8.5,8.5s8.5-3.8,8.5-8.5S16.7,3.5,12,3.5z M8.9,14.9
			l4.7-5.6H9.1V8.4H15v0.8l-4.6,5.5l4.7,0v0.8H8.9V14.9z"/>
	</g>
</g>
<path id="Rectangle_4542" class="st1" d="M0,0h24v24H0V0z"/>
</svg>
