<?xml version="1.0" encoding="utf-8"?>
<!-- Generator: Adobe Illustrator 24.1.3, SVG Export Plug-In . SVG Version: 6.00 Build 0)  -->
<svg version="1.1" xmlns="http://www.w3.org/2000/svg" xmlns:xlink="http://www.w3.org/1999/xlink" x="0px" y="0px"
	 viewBox="0 0 300 100" style="enable-background:new 0 0 300 100;" xml:space="preserve">
<style type="text/css">
	.st0{display:none;}
	.st1{display:inline;fill:#FF00FF;stroke:#000000;stroke-miterlimit:10;}
	.st2{display:inline;}
	.st3{fill:#FFFFFF;}
	.st4{fill:#5E4778;}
	.st5{fill:#3D3144;}
</style>
<g id="Layer_2" class="st0">
	<rect x="-86" y="-65" class="st1" width="509" height="258"/>
</g>
<g id="Layer_1" class="st0">
	<desc>Created with Sketch.</desc>
	<g id="Artboard" class="st2">
		<g id="CARI_Logo-01" transform="translate(5.000000, 6.966292)">
			<path id="Shape" class="st3" d="M35.5,0L0,7.4V56c0,7.1,7.4,13.9,15.4,19.1c6.3,4.1,12.8,7.6,19.6,10.7l0.6,0.2l0.6-0.2
				C37.5,85.3,71,71.2,71,56V7.4L35.5,0z"/>
			<path id="Shape_1_" class="st4" d="M35.5,0L0,7.4V56c0,7.1,7.4,13.9,15.4,19.1c6.3,4.1,12.8,7.6,19.6,10.7l0.6,0.2l0.6-0.2
				C37.5,85.3,71,71.2,71,56V7.4L35.5,0z M68.1,56c0,10.6-23.1,21.8-32.7,25.6L35,81.4l-0.2-0.1l-0.3-0.1l-0.2-0.1L34,81l-0.1,0
				l-0.4-0.2l-0.1,0l-0.4-0.2l-0.1,0l-0.5-0.2h0l-0.5-0.2h0c-4.8-2.1-11-5.2-16.5-8.8l-0.6-0.4L14,70.4L13.4,70l0,0l-0.6-0.4l0,0
				L12.2,69l0,0l-0.6-0.4l-0.1,0L11,68.2l-0.1,0l-0.5-0.4l-0.1-0.1l-0.5-0.4l-0.1-0.1l-0.4-0.4l-0.1-0.1l-0.4-0.4l-0.1-0.1l-0.4-0.4
				l-0.1-0.1l-0.4-0.4l-0.1-0.1l-0.4-0.4l-0.1-0.1l-0.3-0.4l-0.1-0.1l-0.3-0.4l-0.1-0.1l-0.3-0.4L6,63.3L5.7,63l-0.1-0.2l-0.3-0.3
				l-0.1-0.2L5,62l-0.1-0.2l-0.2-0.3l-0.1-0.2C4.5,61.1,4.4,61,4.3,61l-0.1-0.2c-0.1-0.1-0.1-0.2-0.1-0.3L4,60.2
				c0-0.1-0.1-0.2-0.1-0.3c0-0.1-0.1-0.1-0.1-0.2c0-0.1-0.1-0.2-0.1-0.3c0-0.1-0.1-0.1-0.1-0.2c0-0.1-0.1-0.2-0.1-0.2
				c0-0.1-0.1-0.2-0.1-0.2c0-0.1-0.1-0.2-0.1-0.2c0-0.1,0-0.2-0.1-0.2c0-0.1,0-0.1-0.1-0.2c0-0.1,0-0.2-0.1-0.3c0-0.1,0-0.1,0-0.2
				c0-0.1,0-0.2,0-0.3c0-0.1,0-0.1,0-0.2c0-0.1,0-0.2-0.1-0.3c0-0.1,0-0.1,0-0.2V10l32.5-5.2h0.3L68.1,10L68.1,56L68.1,56L68.1,56z"
				/>
			<path id="Shape_2_" class="st4" d="M35.5,8L11,12l-5,0.8v41.9c0,9.7,20.8,20,29.5,23.4c5-2,14.2-6.3,21-11.4
				c0.5-0.4,1-0.8,1.5-1.2c2.3-1.9,4.3-3.9,5.5-5.9c1-1.6,1.5-3.2,1.5-4.8V12.8L35.5,8z M21.3,30.3h17.2v3.6H21.3V30.3z M54.8,31.9
				c0,8.5-5.9,14-14.1,14H29.5v17.9H25V41.9h15.2c6.1,0,10-3.7,10-9.9c0-6.2-4-9.7-10-9.7h-4.7l-11.3,0v-4.1h16.5
				C48.9,18.2,54.8,23.5,54.8,31.9L54.8,31.9z"/>
			<path id="Path" class="st4" d="M36,0v4.8h0.1l32,5.2v46c0,10.6-22.7,21.8-32.2,25.6V86l0.6-0.2C38,85.3,71,71.2,71,56V7.4L36,0z"
				/>
			<path id="Shape_3_" class="st4" d="M40.7,45.5H29.4v2.1c1.9,1.5,3.9,2.9,6.1,4.1c7.1,4,16.3,6.8,28,7.3c1-1.6,1.5-3.2,1.5-4.8
				V12.7L35.5,8L11,11.9c1.1,9.1,4.5,21.7,13.9,31.6v-2h15.2c6.1,0,10-3.7,10-9.8c0-6.1-4-9.7-10-9.7h-4.7l-11.3,0v-4h16.5
				c8.2,0,14.1,5.3,14.1,13.6C54.7,40.1,48.9,45.5,40.7,45.5L40.7,45.5z M35.5,30.1h2.9v3.5H21.2v-3.5H35.5z"/>
			<path id="Path_1_" class="st5" d="M34.5,81.4l-0.2-0.1L34,81.2l-0.2-0.1L33.5,81l-0.1,0L33,80.8l-0.1,0l-0.4-0.2l-0.1,0L32,80.3
				h-0.1l-0.5-0.2h0c-4.7-2.1-10.8-5.2-16.2-8.9l-0.6-0.4l-0.6-0.5l-0.6-0.4l0,0l-0.6-0.4l0,0L12.1,69l0,0l-0.6-0.4l-0.1,0l-0.5-0.4
				l-0.1,0l-0.5-0.4l-0.1-0.1l-0.5-0.4l-0.1-0.1l-0.4-0.4l-0.1-0.1l-0.4-0.4l-0.1-0.1l-0.4-0.4l-0.1-0.1l-0.4-0.4l-0.1-0.1l-0.4-0.4
				l-0.1-0.1l-0.3-0.4l-0.1-0.1l-0.3-0.4l-0.1-0.1L6,63.4l-0.1-0.1L5.6,63l-0.1-0.2l-0.2-0.3l-0.1-0.2L4.9,62l-0.1-0.2l-0.2-0.3
				l-0.1-0.2c-0.1-0.1-0.1-0.2-0.2-0.3l-0.1-0.2L4,60.5l-0.1-0.2c0-0.1-0.1-0.2-0.1-0.3c0-0.1-0.1-0.1-0.1-0.2
				c0-0.1-0.1-0.2-0.1-0.3c0-0.1-0.1-0.1-0.1-0.2c0-0.1-0.1-0.2-0.1-0.2c0-0.1-0.1-0.2-0.1-0.2c0-0.1-0.1-0.2-0.1-0.3
				c0-0.1,0-0.2-0.1-0.2c0-0.1,0-0.1-0.1-0.2c0-0.1,0-0.2-0.1-0.3c0-0.1,0-0.1,0-0.2c0-0.1,0-0.2,0-0.3c0-0.1,0-0.1,0-0.2
				c0-0.1,0-0.2-0.1-0.3c0-0.1,0-0.1,0-0.2V10l32-5.2H35V0L0,7.4V56c0,7.1,7.3,13.9,15.1,19.1c6.2,4.1,12.6,7.6,19.3,10.7L35,86
				v-4.5L34.5,81.4"/>
			<path id="Path_2_" class="st5" d="M35.8,52.1c-2.2-1.2-4.2-2.6-6.1-4.1v15.8h-4.5V43.9c-9.5-10-12.9-22.7-14-31.9L6,12.8v41.9
				c0,9.7,21,20,29.8,23.3c5.1-2,14.3-6.3,21.1-11.4c0.5-0.4,1-0.8,1.5-1.2c2.3-1.9,4.3-3.9,5.6-5.9C52.2,58.9,43,56.2,35.8,52.1"/>
			<polygon id="Path_3_" class="st3" points="238,19 252,19 263.3,35.5 274.7,19 288.9,19 270.9,44.6 290,72 275.7,72 263.3,54.6 
				251,72 237,72 255.9,45.1 			"/>
			<polygon id="Path_4_" class="st3" points="230,19 208.7,72 196,72 175,19 188.1,19 202.5,59 217.3,19 			"/>
			<rect id="Rectangle" x="152" y="19" class="st3" width="12" height="53"/>
			<path id="Shape_4_" class="st3" d="M114.4,20.1L114.4,20.1L94,20v53h12.1V57.9h8.4c13.3,0,23.6-4.4,23.6-19.5
				C138,19.8,120.8,20.1,114.4,20.1z M126.5,39.4c-0.1,5.2-3,8.6-12,8.4h-8.4v-18h8.4C123.7,29.8,126.6,33.1,126.5,39.4z"/>
		</g>
	</g>
</g>
<g id="Layer_3">
	<image style="overflow:visible;" width="300" height="100" xlink:href="img-logo-cari.png"  transform="matrix(1 0 0 1 0.5 0.5)">
	</image>
</g>
</svg>
