/* XPM */
static char *cari16[] = {
/* columns rows colors chars-per-pixel */
"16 16 177 2 ",
"   c #433623",
".  c #453524",
"X  c #503D26",
"o  c #3A4C26",
"O  c #3B4D28",
"+  c #3D4D29",
"@  c #3F4C2A",
"#  c #434C2C",
"$  c #46512F",
"%  c #495029",
"&  c #4D532D",
"*  c #515329",
"=  c #51552B",
"-  c #51562B",
";  c #505C2B",
":  c #435430",
">  c #435530",
",  c #425731",
"<  c #4F5731",
"1  c #475D36",
"2  c #4A5F3C",
"3  c #515B32",
"4  c #535A34",
"5  c #56513E",
"6  c #654928",
"7  c #765C2B",
"8  c #604C30",
"9  c #624D31",
"0  c #614E33",
"q  c #625135",
"w  c #725733",
"e  c #735733",
"r  c #446238",
"t  c #566637",
"y  c #54673E",
"u  c #5C693B",
"i  c #586E3D",
"p  c #64642E",
"a  c #65662E",
"s  c #616432",
"d  c #666631",
"f  c #656433",
"g  c #676633",
"h  c #666833",
"j  c #796C33",
"k  c #7D6F36",
"l  c #68743E",
"z  c #5A5440",
"x  c #645E44",
"c  c #646D43",
"v  c #796D48",
"b  c #6B7641",
"n  c #667E45",
"m  c #717541",
"M  c #737945",
"N  c #A1601C",
"B  c #BD701F",
"V  c #915C21",
"C  c #9F6826",
"Z  c #90712A",
"A  c #A16827",
"S  c #A46D26",
"D  c #AA6B24",
"F  c #AF6E26",
"G  c #A56F2D",
"H  c #A66D2E",
"J  c #AF6F29",
"K  c #B26D22",
"L  c #A77123",
"P  c #BA7122",
"I  c #BD7623",
"U  c #B87624",
"Y  c #B77E27",
"T  c #BB7823",
"R  c #BF7A25",
"E  c #B87C25",
"W  c #BB7C27",
"Q  c #BB7F27",
"!  c #BF7C27",
"~  c #B57228",
"^  c #B2742F",
"/  c #B27A2A",
"(  c #AD7C30",
")  c #B17A33",
"_  c #B07C35",
"`  c #B57D37",
"'  c #C17624",
"]  c #C17F2A",
"[  c #C07C2E",
"{  c #B6842A",
"}  c #B6832E",
"|  c #BD862F",
" . c #BF882F",
".. c #AE8F38",
"X. c #B58E31",
"o. c #BF8D35",
"O. c #B4863B",
"+. c #BC8639",
"@. c #BE8A3C",
"#. c #BC9537",
"$. c #BD9339",
"%. c #BE983B",
"&. c #BB983E",
"*. c #C2842D",
"=. c #C1862E",
"-. c #C28034",
";. c #C28930",
":. c #C38831",
">. c #C38F31",
",. c #C48C31",
"<. c #C08836",
"1. c #C68E34",
"2. c #CC8A32",
"3. c #C0873E",
"4. c #CE8738",
"5. c #D48C38",
"6. c #D48F3A",
"7. c #C59137",
"8. c #CD9037",
"9. c #CB9038",
"0. c #C29A3D",
"q. c #C59B3E",
"w. c #D1943C",
"e. c #D0963C",
"r. c #DB933B",
"t. c #E4953C",
"y. c #8E8650",
"u. c #AC9043",
"i. c #BB9645",
"p. c #BFA747",
"a. c #B3B15D",
"s. c #CE9342",
"d. c #C79D41",
"f. c #CA9F42",
"g. c #C69748",
"h. c #D39D43",
"j. c #D59E40",
"k. c #DA9E48",
"l. c #E89B41",
"z. c #CBA147",
"x. c #CEA247",
"c. c #CBA348",
"v. c #C9A948",
"b. c #CDA849",
"n. c #C9AF4F",
"m. c #CAAE4F",
"M. c #D0A242",
"N. c #D6A646",
"B. c #D9A94B",
"V. c #C7AF51",
"C. c #C8AE51",
"Z. c #C9B251",
"A. c #CDB353",
"S. c #CAB354",
"D. c #CDB95A",
"F. c #CDBA5A",
"G. c #C8BF5D",
"H. c #D5B251",
"J. c #D1BD5B",
"K. c #D8BE5B",
"L. c #EBA044",
"P. c #E0A348",
"I. c #E8A74F",
"U. c #EBA84D",
"Y. c #EFA94C",
"T. c #F6B253",
"R. c #CAAD60",
"E. c #D8C05D",
"W. c #CCCC66",
"Q. c #CFCE67",
"!. c #D4C361",
"~. c #DDC263",
"^. c #D8C766",
"/. c #D8CB69",
"(. c #DDD36E",
"). c #E3CA65",
"_. c None",
/* pixels */
"_._._._._._._._._._._._._._._._.",
"_._._._.y r i b l t , < _._._._.",
"_._._.2 n a.^.!.J.V.u.s @ _._._.",
"_._.5 y.(.W.D.S.Z.p.q.7.7 . _._.",
"_.x v /.Q.G.C.c.f.$. .{ =.6 X _.",
"_.z R.).F.A.x.&.o.] T Q >.)   _.",
"_.c ~.E.m.b.w.:.W E Y X.#.e.* _.",
"_.M K.n.h.9.| U I ! ,.1.%.M.a - ",
"_.m H.v.0.;.R B ' *.2.8.j.N.p = ",
"_.u P...Z L P N K C ( <.d.B.; _.",
"_.1 O.S / } ~ V D G _ +.z.i.o _.",
"_.4 f J F [ ^ H A ` 3.s.k.d % _.",
"_._.: j 4.t.l.5.-.Y.T.I.k O _._.",
"_._._.> h @.L.r.6.U.g.g + _._._.",
"_._._._.3 $ 9 e w 8 # & _._._._.",
"_._._._._._._.q 0 _._._._._._._."
};
