/* XPM */
static char *vsync48[] = {
/* columns rows colors chars-per-pixel */
"48 48 243 2 ",
"   c #1C1C1D",
".  c #17181A",
"X  c #0B3A1E",
"o  c #1A321E",
"O  c #1A2D1B",
"+  c #26271E",
"@  c #1E1F20",
"#  c #1F2122",
"$  c #193824",
"%  c #232324",
"&  c #2B2924",
"*  c #332C23",
"=  c #293826",
"-  c #3B3421",
";  c #363928",
":  c #323233",
">  c #363C34",
",  c #2E3332",
"<  c #5C360E",
"1  c #653E12",
"2  c #463B29",
"3  c #473F31",
"4  c #044C20",
"5  c #0C4A25",
"6  c #134B2A",
"7  c #154627",
"8  c #035323",
"9  c #0C5329",
"0  c #085929",
"q  c #14542D",
"w  c #17562E",
"e  c #155632",
"r  c #1A5332",
"t  c #125C32",
"y  c #155430",
"u  c #28452A",
"i  c #36462A",
"p  c #364733",
"a  c #245634",
"s  c #385534",
"d  c #234932",
"f  c #09632E",
"g  c #0C6331",
"h  c #03471F",
"j  c #554F1C",
"k  c #6C4718",
"l  c #7A4D1B",
"z  c #774916",
"x  c #7D531D",
"c  c #7D5D1F",
"v  c #61571C",
"b  c #48442B",
"n  c #58452A",
"m  c #5C512C",
"M  c #494837",
"N  c #584B32",
"B  c #485539",
"V  c #56553D",
"C  c #47502F",
"Z  c #644B2A",
"A  c #7A5627",
"S  c #6B5232",
"D  c #645937",
"F  c #7A5E35",
"G  c #60532F",
"H  c #706830",
"J  c #5A5741",
"K  c #696343",
"L  c #766946",
"P  c #79714C",
"I  c #86531B",
"U  c #965B1C",
"Y  c #804F1A",
"T  c #9D611E",
"R  c #B46A1C",
"E  c #B96D1E",
"W  c #B1671A",
"Q  c #BF711F",
"!  c #A3631E",
"~  c #845924",
"^  c #8B5A22",
"/  c #825927",
"(  c #825C31",
")  c #935F27",
"_  c #8D612B",
"`  c #966428",
"'  c #876637",
"]  c #946B36",
"[  c #986C36",
"{  c #9A723A",
"}  c #93772D",
"|  c #A86B26",
" . c #B56D21",
".. c #B96F22",
"X. c #AC7825",
"o. c #B67325",
"O. c #BC7323",
"+. c #BB7C26",
"@. c #B8792A",
"#. c #A5763B",
"$. c #B87A34",
"%. c #C27522",
"&. c #C37C26",
"*. c #C37C2A",
"=. c #CB7C27",
"-. c #C37E32",
";. c #D07F29",
":. c #88774A",
">. c #987742",
",. c #A97E42",
"<. c #768A32",
"1. c #9A882C",
"2. c #989839",
"3. c #948B34",
"4. c #AD822A",
"5. c #A9882C",
"6. c #B5852B",
"7. c #BB872C",
"8. c #A88D35",
"9. c #B48C32",
"0. c #BB8C32",
"q. c #B88239",
"w. c #AD9234",
"e. c #AC9B3D",
"r. c #A59537",
"t. c #BB9335",
"y. c #B39C3E",
"u. c #BA9639",
"i. c #ADA03F",
"p. c #C4842E",
"a. c #CC832C",
"s. c #C6892D",
"d. c #D3842C",
"f. c #DA872C",
"g. c #C48332",
"h. c #CA8533",
"j. c #C28C34",
"k. c #CB8A34",
"l. c #C7893A",
"z. c #D38D34",
"x. c #DA8C34",
"c. c #D48B37",
"v. c #C19436",
"b. c #C2963B",
"n. c #CC933A",
"m. c #CA983A",
"M. c #D49336",
"N. c #DC9036",
"B. c #D4943C",
"V. c #DA933B",
"C. c #D59A3D",
"Z. c #E28E31",
"A. c #E39135",
"S. c #E2943A",
"D. c #E99639",
"F. c #EC9A3D",
"G. c #E4993C",
"H. c #9B834E",
"J. c #968752",
"K. c #939049",
"L. c #A98448",
"P. c #BC8643",
"I. c #AC9D41",
"U. c #BE9947",
"Y. c #AA9859",
"T. c #B19D5C",
"R. c #94B14E",
"E. c #ACAB4C",
"W. c #A7A242",
"Q. c #B8A847",
"!. c #B7B04E",
"~. c #A2BA57",
"^. c #BCBD5B",
"/. c #BAB855",
"(. c #ACA957",
"). c #C88A44",
"_. c #CC9242",
"`. c #C99D44",
"'. c #D59444",
"]. c #DB9C43",
"[. c #D89B46",
"{. c #CD9D56",
"}. c #E39D43",
"|. c #ED9E41",
" X c #E09F49",
".X c #F09F41",
"XX c #C3A243",
"oX c #CBAC4B",
"OX c #C9A849",
"+X c #D2A245",
"@X c #DBA445",
"#X c #DBAA4B",
"$X c #D5A74A",
"%X c #CBB24D",
"&X c #D3B14F",
"*X c #C5AA55",
"=X c #D9A956",
"-X c #C4B453",
";X c #CCBA5A",
":X c #C8B856",
">X c #DDB455",
",X c #D7B959",
"<X c #EBA244",
"1X c #EBA54A",
"2X c #EAAC4B",
"3X c #E4A648",
"4X c #F3A343",
"5X c #F4AA4B",
"6X c #FAAD4B",
"7X c #F7A947",
"8X c #FEB24F",
"9X c #F2B14E",
"0X c #E4AA53",
"qX c #E6B758",
"wX c #F4B454",
"eX c #FDB452",
"rX c #FFB956",
"tX c #F7BC58",
"yX c #E7B14E",
"uX c #D9B863",
"iX c #C4AF62",
"pX c #E9BB61",
"aX c #B9C863",
"sX c #ADCC65",
"dX c #A3C560",
"fX c #C6C15E",
"gX c #D5C15E",
"hX c #E7C15E",
"jX c #F7C15E",
"kX c #C7C964",
"lX c #D8C864",
"zX c #CAD56C",
"xX c #D4D36C",
"cX c #DFDE74",
"vX c #E9CA67",
"bX c #F8CB67",
"nX c #E8D36C",
"mX c #FAD36D",
"MX c #FCDB72",
"NX c #F3DA72",
"BX c #E5DD74",
"VX c #FBE379",
"CX c None",
/* pixels */
"CXCXCXCXCXCXCXCXCXCXCXCXCXCXCXCXCXCXCXCXCXCXCXCXCXCXCXCXCXCXCXCXCXCXCXCXCXCXCXCXCXCXCXCXCXCXCXCX",
"CXCXCXCXCXCXCXCXCXCXCXCXCXCXCXCXCXCXCXCXCXCXCXCXCXCXCXCXCXCXCXCXCXCXCXCXCXCXCXCXCXCXCXCXCXCXCXCX",
"CXCXCXCXCXCXCXCXCXCXCXCXCXCXCXCXCXCXY.:.K V B M B N V F :.L.CXCXCXCXCXCXCXCXCXCXCXCXCXCXCXCXCXCX",
"CXCXCXCXCXCXCXCXCXCXCXCXCXCXCXY.P B p 7 6 6 9 9 0 9 9 9 6 = M F L.CXCXCXCXCXCXCXCXCXCXCXCXCXCXCX",
"CXCXCXCXCXCXCXCXCXCXCXCXCXY.D p 6 0 f 9 r u p B C p d 6 6 0 9 7 = N ,.CXCXCXCXCXCXCXCXCXCXCXCXCX",
"CXCXCXCXCXCXCXCXCXCXCXiXL p q g 6 s D H.*X>XpXpXqXqX=XU.>.V i 7 0 9 = S q.CXCXCXCXCXCXCXCXCXCXCX",
"CXCXCXCXCXCXCXCXCXCXY.B 6 f t B H.,XmXNXnXnXnXkXlXaXlXhXtXwX+X>.b 6 6 $ 2 ] CXCXCXCXCXCXCXCXCXCX",
"CXCXCXCXCXCXCXCXCXJ.p t f s J.nXVXNXMXxXkXlXvX^.^.,X,XR.:XqXyXyX$X] i 9 9 = F CXCXCXCXCXCXCXCXCX",
"CXCXCXCXCXCXCXCXJ.> e e D uXVXaXsXvXbXxX;XkX,X~.^.bXqXR.!.&XQ.XX$X1Xk.m 9 0 & A CXCXCXCXCXCXCXCX",
"CXCXCXCXCXCXCXJ.: , d P vXVXcXdXsXkXuXkX^.qX>X:X:XwX%X>XQ.E.OXy.i.C.@XV.A = @ & A CXCXCXCXCXCXCX",
"CXCXCXCXCXCXY.: : : J.mXVXVXzXnXlXlXqX-X;X=X-X~.;X-XE.&XXXOXOXn.t.C.v.N.V.( + @ & _ CXCXCXCXCXCX",
"CXCXCXCXCXiXJ : : :.mXVXVXxXxXxXsXlX-X{.-X-X%X!.oXQ.oXW.I.XXe.7.N.v.0.7.9.N.A @   2 $.CXCXCXCXCX",
"CXCXCXCXCXP , : K vXVXBXsXzXlXaXR.kX~.E.OX=X0X0X*X+X+X`.e.`.t.7.t.s.5.4.5.x.x.n     Z CXCXCXCXCX",
"CXCXCXCXY.M , J uXNXkXzXcXkXaXgX;XaX;X/.[.$X[.$XoXn.}.v.2.b.*.7.0.s.X.1.s.f.Z.-.*   & ` CXCXCXCX",
"CXCXCXCXK : : J.mXxXuXsXlXaXvXlX;XqXtX,X`.n.b.R.Q.z.k.u.u.*.g.s.6.Q 5.1.s.5.0.S.)     2 CXCXCXCX",
"CXCXCXT.M : J pXMXbX,XuXlXgX^.^.>X#X>XE.I.g.XXW.U.7.N.V.*.@.6.*.R %.d.a.&.p.s.M.x.2 . * #.CXCXCX",
"CXCXCXP , , ,.MXMXmXaX:X>XqXfX:X,XQ.'.&X+X0.`.U.e.0.N.*.O.%.+.%.R %.%.6.6.s.z.t.F._     Z CXCXCX",
"CXCXCXJ , J uXMXMXmXvXvX,X+X~.-X&X!.`.[.3X0.I.w.e.g.*. .%.7.6.R W X.6.0.t.t.m.G.F.z.* . - CXCXCX",
"CXCXT.J , K bXmXvXvXbXgX~.OXE.-XyXoX1XB.].g.b.9.t.&. .X.6.7.%.R a.d.9.w.1.r.t.F.F.F.n X O #.CXCX",
"CXCX:.a t >.mXnXaX~.vXqX;X*X`.oX*XQ.3XB.c.*.N.a.a.O.@.6.5.o.R 1.0.f.r.2.v.w.D.F.C..X` 5 o F CXCX",
"CXCXP e a {.mX;X;X;X/.qXqX&X+X[.$X+XV.k.p.@.k.k.E E Q p.p.R a.1.5.w.w.w.0.v.C.XX2.3X6.7 h Z CXCX",
"CXCXK e a =XbXbXvX&X&X#X`.Q.$Xn.B.<X`.g.O.O.X.1.R R X.p.R %.;.s.w.v.M.d.m.2.e.i.y.7XM.u 8 2 CXCX",
"CXCXJ r B qXbXbXqXR.-X#X@XB.c.C.g.k.2.t.*.W X.6.R Q 7.Q R p.s.Z.t.u.s.0.m.2.m.m.XX7XV.u 8 b CXCX",
"CXCXJ e B qXjX:XR.E.OX3X@XC.l.g.s.o.5.w.a.R R ;.R d.f.R =.0.w.M.M.0.f.C.M.m.XXXX#X6X<Xi 8 - CXCX",
"CXCXJ g B pXpXR.R.E.oXyXOXy.C.G.x.&.O.O.;.Q W =.R d.%.X.9.M.v.N.a.*.d.N.|.`.i.i.@X7XD.i 8 - CXCX",
"CXCXJ e p =XqX-X&X2X#Xi.W.y.m.S.n.2.d.E Q =.W %.E %.O.0.w.a.a.=.a.k.j.V.V.N.C.XX+X$XG.= h 2 CXCX",
"CXCXK e s {.wX9X2X2X@Xi.e.u.M.7.@.1.a.f.E Q ..E E R s.A.;.&.d.S.C.I.i.@X7X1X$XQ.!.yXV.u 8 b CXCX",
"CXCXL r a P.wX2X1X<XQ.y.r.v.v.1.6.E Q Q E W E  .R E d.%...*.p.k.h.7.t.B.4XOX#X2X9X8Xq.4 h Z CXCX",
"CXCX:.d r >.wX2X<X@Xr.1.H v c T %.Q R %...z U .. .O.! z l I v } F.G.-.~ 7.+XOXoX8X8X} 5 X F CXCX",
"CXCX,.p t D 1X<X<Xe.<.j v c l < z %.f.Z.T k 1 ..O.O.T k _ { G j 7.6XB.k q.%XQ.oX%X9Xm 8 O #.CXCX",
"CXCXCXB g s '.<XG.M.c k $.x.w.H H 0.Z.d.l ^ 1 | O.O.| z g.5X$XA _ 7XB.j 1.%X-X%XyX'.= 4 - CXCXCX",
"CXCXCXF r r ] <XV.k.z U f.f.1.3.v.d.Z.o.l g.I I %.@.@.l q.4X<X_ _ 8X'.S 3.yXrXrXeX} X X S CXCXCX",
"CXCXCX,.p g B V.S.*.1 T ;.Z.a.6.Z.Z.Z.) ^ S.` 1 O.*.-.l ~ ) ) ~ _.8X].A 8.tXrXrX3Xi 4 o #.CXCXCX",
"CXCXCXCXG q r ] D.d.Y Y ;.Z.Z.d.x.A.;.l l ^ / < T -.$./ [ #.~ [ eX8X].~ _.rXrX8X] 5 5 2 CXCXCXCX",
"CXCXCXCX#.> t p -.S.| 1 U *.%.I ^ S.| l $.).P.1 z -.$.l ).eX#./ [.rX'.~ _.tX8X'.; 5 + { CXCXCXCX",
"CXCXCXCXCXS r 6 G x.V.[ z z z ~ -.S.^ ) |..X}./ 1 o.$.Y l.eX1X( ` eX[./ _.eX1Xm 8 X m CXCXCXCXCX",
"CXCXCXCXCX$.b e r ( S.S.).$.).'.F.S.).'..X.Xx.$.#.$.l.'.1XeXeX0X=XwXwX{.0X5XF X 8 - q.CXCXCXCXCX",
"CXCXCXCXCXCX] > t r ' S.D.D.D.F.F.F..X.X4X.Xc.-.-.-.l.8XeXeXeXrXrXrXrXeX6X' 7 5 = [ CXCXCXCXCXCX",
"CXCXCXCXCXCXCX( u f r F S.F.F.F.F..X.X.X4X4Xh.-.-.h.h.5XeXeXrXrXrXrX8X X( $ 8 $ F CXCXCXCXCXCXCX",
"CXCXCXCXCXCXCXCX( = f d G c..XF..X.X4X7X7X.Xd.-.h.h.c.4XeXrXrXrXeX8X).G 7 5 $ A CXCXCXCXCXCXCXCX",
"CXCXCXCXCXCXCXCXCX' ; q t i ] ]..X7X7X7X5X|.-.-.-.h.l.1XrXrXrX8X3X{ ; 8 5 = ( CXCXCXCXCXCXCXCXCX",
"CXCXCXCXCXCXCXCXCXCX[ 3 6 f q C ] '..X6X8X4XV.V.V.'.}.2XeXwX'.{ C 6 5 $ ; ] CXCXCXCXCXCXCXCXCXCX",
"CXCXCXCXCXCXCXCXCXCXCXq.S > 0 f y p S >.P.'.}.1X|. X[.).>.S ; 9 0 5 = Z q.CXCXCXCXCXCXCXCXCXCXCX",
"CXCXCXCXCXCXCXCXCXCXCXCXCX#.G = $ $ % % & : 2 3 3 3 * & % @ # 7 = n { CXCXCXCXCXCXCXCXCXCXCXCXCX",
"CXCXCXCXCXCXCXCXCXCXCXCXCXCXCX#.F 3 * & % % # % % % % @ % * 2 S { CXCXCXCXCXCXCXCXCXCXCXCXCXCXCX",
"CXCXCXCXCXCXCXCXCXCXCXCXCXCXCXCXCXCX,.' S N M n 3 3 n S ' #.CXCXCXCXCXCXCXCXCXCXCXCXCXCXCXCXCXCX",
"CXCXCXCXCXCXCXCXCXCXCXCXCXCXCXCXCXCXCXCXCXCXCXCXCXCXCXCXCXCXCXCXCXCXCXCXCXCXCXCXCXCXCXCXCXCXCXCX",
"CXCXCXCXCXCXCXCXCXCXCXCXCXCXCXCXCXCXCXCXCXCXCXCXCXCXCXCXCXCXCXCXCXCXCXCXCXCXCXCXCXCXCXCXCXCXCXCX"
};
