/* XPM */
static char *vsync32[] = {
/* columns rows colors chars-per-pixel */
"32 32 224 2 ",
"   c #1C1C1E",
".  c #2B261E",
"X  c #1C3720",
"o  c #242524",
"O  c #2A2926",
"+  c #322A21",
"@  c #382E23",
"#  c #383824",
"$  c #323232",
"%  c #2E3C2D",
"&  c #423827",
"*  c #433F38",
"=  c #0A441E",
"-  c #15401F",
";  c #0D4322",
":  c #0B4C24",
">  c #134C2A",
",  c #154525",
"<  c #0F5128",
"1  c #16522E",
"2  c #14592F",
"3  c #1C5332",
"4  c #1A5834",
"5  c #2C4D2B",
"6  c #284828",
"7  c #374E2F",
"8  c #394526",
"9  c #28542E",
"0  c #265833",
"q  c #365533",
"w  c #334C38",
"e  c #774A18",
"r  c #78541E",
"t  c #484D2F",
"y  c #43472D",
"u  c #5B512A",
"i  c #595D2E",
"p  c #48453A",
"a  c #465839",
"s  c #565034",
"d  c #644929",
"f  c #614628",
"g  c #62532D",
"h  c #675A24",
"j  c #78582D",
"k  c #614B30",
"l  c #665333",
"z  c #6C5934",
"x  c #6C5E39",
"c  c #665A32",
"v  c #765E34",
"b  c #5D653C",
"n  c #556739",
"m  c #77682B",
"M  c #656238",
"N  c #7C6D35",
"B  c #555040",
"V  c #6C6A43",
"C  c #666542",
"Z  c #766D47",
"A  c #717545",
"S  c #89551C",
"D  c #905A1F",
"F  c #A4631D",
"G  c #B46B1D",
"H  c #BA6E1F",
"J  c #BE711F",
"K  c #8C5C24",
"L  c #865A28",
"P  c #915E27",
"I  c #8C6329",
"U  c #9C6221",
"Y  c #9C6C2E",
"T  c #976429",
"R  c #816B34",
"E  c #826F39",
"W  c #8B6636",
"Q  c #926935",
"!  c #946936",
"~  c #9D773A",
"^  c #857038",
"/  c #AC6D24",
"(  c #A26A2B",
")  c #B46E22",
"_  c #B86E20",
"`  c #AD7A2D",
"'  c #B57223",
"]  c #BC7423",
"[  c #B67A24",
"{  c #BD7A24",
"}  c #B67B2E",
"|  c #BD7C2B",
" . c #BC7628",
".. c #A77A3E",
"X. c #A97835",
"o. c #B77933",
"O. c #C0711F",
"+. c #C57A26",
"@. c #C97B26",
"#. c #C37926",
"$. c #D17F28",
"%. c #C07E33",
"&. c #816D43",
"*. c #867841",
"=. c #85794D",
"-. c #957C4A",
";. c #9D872E",
":. c #AB832B",
">. c #A8892E",
",. c #B4852C",
"<. c #BC862C",
"1. c #AA8A34",
"2. c #BB8D33",
"3. c #B58936",
"4. c #AD9A3C",
"5. c #A79136",
"6. c #B5963A",
"7. c #BB953A",
"8. c #B49A3D",
"9. c #BB983A",
"0. c #C3832C",
"q. c #CC832C",
"w. c #C2892D",
"e. c #DB872C",
"r. c #C48232",
"t. c #CB8535",
"y. c #C38B32",
"u. c #CC8B33",
"i. c #CC8A3A",
"p. c #C5863B",
"a. c #D28C35",
"s. c #DA8B33",
"d. c #D48A35",
"f. c #C29336",
"g. c #C5973A",
"h. c #D3933B",
"j. c #DC943C",
"k. c #D39C3E",
"l. c #D39437",
"z. c #E08F32",
"x. c #E3953D",
"c. c #E5993D",
"v. c #ED9B3D",
"b. c #89844B",
"n. c #9B8952",
"m. c #A58949",
"M. c #B88440",
"N. c #A7914F",
"B. c #B4954A",
"V. c #A08E56",
"C. c #AA9150",
"Z. c #B59852",
"A. c #9BB04C",
"S. c #ACAF4E",
"D. c #B4A344",
"F. c #BCA243",
"G. c #BAA949",
"H. c #A1B24F",
"J. c #BCB453",
"K. c #B8B857",
"L. c #C98E41",
"P. c #CB9A44",
"I. c #D29445",
"U. c #DC9D4A",
"Y. c #D89C43",
"T. c #EA9E43",
"R. c #E79C45",
"E. c #F09F41",
"W. c #C3A343",
"Q. c #CCA649",
"!. c #C5AD4B",
"~. c #CCA84A",
"^. c #D4A244",
"/. c #DBA244",
"(. c #DAA74A",
"). c #D4AB4B",
"_. c #DBAB4C",
"`. c #CCAC50",
"'. c #CBB252",
"]. c #C3BC5A",
"[. c #CBB958",
"{. c #D9B355",
"}. c #DCBC5B",
"|. c #D4B856",
" X c #D3B24E",
".X c #EEA344",
"XX c #EAAA4B",
"oX c #E7A748",
"OX c #F3A342",
"+X c #F3AB4C",
"@X c #F6AA49",
"#X c #FCB14F",
"$X c #F1B14F",
"%X c #E3A754",
"&X c #F3AE50",
"*X c #E5B755",
"=X c #F5B353",
"-X c #FEB552",
";X c #FFBA56",
":X c #E4B04C",
">X c #D5B662",
",X c #D1B964",
"<X c #B7C25F",
"1X c #BBCF68",
"2X c #D6C15E",
"3X c #C7C25F",
"4X c #EDC25E",
"5X c #CBCA65",
"6X c #CAC863",
"7X c #DAC562",
"8X c #D9CC66",
"9X c #CCD46D",
"0X c #D9D46D",
"qX c #DFDB72",
"wX c #E3CD69",
"eX c #E6CA67",
"rX c #F7CB67",
"tX c #E8D26C",
"yX c #F2D16D",
"uX c #FCD972",
"iX c #F4D471",
"pX c #E5DF74",
"aX c #F1E176",
"sX c None",
/* pixels */
"sXsXsXsXsXsXsXsXsXsXsXsXsXsXsXsXsXsXsXsXsXsXsXsXsXsXsXsXsXsXsXsX",
"sXsXsXsXsXsXsXsXsXsXsXsXn.Z V b b C Z -.sXsXsXsXsXsXsXsXsXsXsXsX",
"sXsXsXsXsXsXsXsXsXsXA q 9 > > > > > > 6 7 x sXsXsXsXsXsXsXsXsXsX",
"sXsXsXsXsXsXsXsXA q > 0 n b.N.Z.B.N.^ n 9 > 5 l sXsXsXsXsXsXsXsX",
"sXsXsXsXsXsXsXa 2 0 b.,XyX0XtX8X6X2X|.*XP.^ 9 , y ! sXsXsXsXsXsX",
"sXsXsXsXsXn.a 4 A ,X9XqXtX6X7X].3X*XH. X!.(.i.i < % L sXsXsXsXsX",
"sXsXsXsXsXp $ b.iXpX1X6X>X].{.J.|.|.!.G.W.8.k.h.m O @ K sXsXsXsX",
"sXsXsXsXb $ =.uXiX0X5X6X|.'.~.].'.G.F.F.g.i.g.y.u.j o & sXsXsXsX",
"sXsXsXZ $ Z tXqX9X5X<X<XK.!.(._.Q.^.6.8.w.2.w.:.w.e.f   d sXsXsX",
"sXsXsXp p >XwX6X5X6X>X[.}.Q.L.D.W.l.9.<.w.<.J ;.w.y.<.+ + sXsXsX",
"sXsXZ $ -.uXeX[.2X,X[.{.).D.f.D.6.a.u.0.<.J O.q.<.u.l.L   d sXsX",
"sXsXB p >XuXyX7X{.J.[.!.P.U.7.8.6.+.J O.,.G ,.<.2.f.c.r.O @ sXsX",
"sXV.w C rXwX7XeXJ.G.'.)./.h.y.y.w.' :.,.H <.w.5.5.f.v.c.u X Q sX",
"sX=.4 b.yX6XK.}.{.Q.^.Q.j.r.%.u.] ] 0.J ,.>.2.>.2.k.9.^.m ; j sX",
"sXZ 3 C.rX4X'.(.^.Q.h.k.9.#.' :.G J { J q.2.f.u.9.4.8.oX~ : u sX",
"sXV 3 Z.4XJ.S.Q.Y.i.u.| 1.w.) { J q.] w.f.l.w.u.g.W.W.@XX.: u sX",
"sXC 4 Z.|.A.!.).F.k.j.y.] @.O.H J +.>.y.u.q.t.s.j.F.F.XX3.= u sX",
"sXV 9 m.=X:XXXD.4.f.w.>.$.O.O.G H #.u.q.q.l.6.k..X/.W._.~ = g sX",
"sX&.3 ^ $XXX^.4.;.` :.] _ _ F G _ ] / G [ u.p.<.k.).:X#XN = v sX",
"sX-.0 n oXT.4.m h j e ) $.) e F ] ( e I i ` .XT 3.!. XXXi , Q sX",
"sXsXa 0 L.c.} r %.,.N ,.z.P K S ] / K T.7.K .XW 5. X*XP.- 8 sXsX",
"sXsXv 3 E c./ D e.0.2.z.$.D o.S '  .K o.( X.+XY B.;X-XN = u sXsX",
"sXsXsXq q r.#.e +.e.[ s./ L Y e U | K ..I I.#XY Y.;XI.5 6 sXsXsX",
"sXsXsXz 1 c d.Y S D T u.T %.R.T L } T +XL.~ &XY U.+Xi = d sXsXsX",
"sXsXsXsXt 1 R z.i.i.x.x.I.v.v.%.X.t.R.#X=X%X=X%XoXR , 8 sXsXsXsX",
"sXsXsXsX! 7 2 R z.v.v.T.E.E.T.%.%.i.+X;X;X;X;XXXR , 6 ! sXsXsXsX",
"sXsXsXsXsXQ 7 > M i.E.OXOX@Xx.@.t.q.+X;X;X-XI.c : 6 W sXsXsXsXsX",
"sXsXsXsXsXsX! t 1 9 E L.OX#XT.h.h.R.+X&XI.E 5 , 8 ! sXsXsXsXsXsX",
"sXsXsXsXsXsXsXsXz 5 1 6 k &...o.....W k 6 > 6 g sXsXsXsXsXsXsXsX",
"sXsXsXsXsXsXsXsXsXsXz y O O O O O O o + & l sXsXsXsXsXsXsXsXsXsX",
"sXsXsXsXsXsXsXsXsXsXsXsX-.W z l l z v -.sXsXsXsXsXsXsXsXsXsXsXsX",
"sXsXsXsXsXsXsXsXsXsXsXsXsXsXsXsXsXsXsXsXsXsXsXsXsXsXsXsXsXsXsXsX"
};
