/* XPM */
static char *vsync64[] = {
/* columns rows colors chars-per-pixel */
"64 64 251 2 ",
"   c #1C1C1D",
".  c #191E17",
"X  c #211F1E",
"o  c #17251B",
"O  c #0A381D",
"+  c #112F1C",
"@  c #26241C",
"#  c #2D2E1D",
"$  c #1C2A23",
"%  c #193826",
"&  c #0D3F22",
"*  c #232324",
"=  c #292A26",
"-  c #352E24",
";  c #2B332C",
":  c #233829",
">  c #363829",
",  c #323333",
"<  c #393B35",
"1  c #2E3431",
"2  c #1E1F20",
"3  c #5A350E",
"4  c #4F380E",
"5  c #663E12",
"6  c #623A0E",
"7  c #453928",
"8  c #533F28",
"9  c #453E30",
"0  c #07441E",
"q  c #0B4A24",
"w  c #134A2A",
"e  c #164529",
"r  c #0C5429",
"t  c #0C5B2B",
"y  c #065724",
"u  c #13532D",
"i  c #1C4C31",
"p  c #1F4731",
"a  c #175632",
"s  c #23432D",
"d  c #244532",
"f  c #394636",
"g  c #3D422E",
"h  c #0B632D",
"j  c #06682B",
"k  c #0C6731",
"l  c #116232",
"z  c #057330",
"x  c #3D4817",
"c  c #4F4B1A",
"v  c #6C4214",
"b  c #654A1A",
"n  c #764D1C",
"m  c #754918",
"M  c #7C521E",
"N  c #58452A",
"B  c #474638",
"V  c #5D4C32",
"C  c #544A34",
"Z  c #5B553B",
"A  c #4B4934",
"S  c #684C2B",
"D  c #7B5222",
"F  c #76542B",
"G  c #6A5838",
"H  c #765934",
"J  c #69502E",
"K  c #78653C",
"L  c #746F37",
"P  c #526823",
"I  c #5B5642",
"U  c #635A42",
"Y  c #756947",
"T  c #746B47",
"R  c #89551B",
"E  c #965B1B",
"W  c #804E17",
"Q  c #AB651B",
"!  c #B1671A",
"~  c #B46A1D",
"^  c #B96E1E",
"/  c #BD701F",
"(  c #855A27",
")  c #8E5E29",
"_  c #8C632C",
"`  c #966328",
"'  c #9B722B",
"]  c #8A6536",
"[  c #976A35",
"{  c #93753B",
"}  c #A96A25",
"|  c #B56D21",
" . c #B96E20",
".. c #AB7728",
"X. c #B47324",
"o. c #BC7424",
"O. c #BD7C2A",
"+. c #B77828",
"@. c #A97738",
"#. c #B77C36",
"$. c #A16E34",
"%. c #9B611F",
"&. c #C1721E",
"*. c #C37523",
"=. c #CC7C26",
"-. c #C37C2B",
";. c #C77B28",
":. c #D17F26",
">. c #C37F31",
",. c #846D42",
"<. c #8A774A",
"1. c #89794C",
"2. c #A77C41",
"3. c #B57C40",
"4. c #7C9536",
"5. c #7B8C30",
"6. c #7CB14D",
"7. c #88892B",
"8. c #9C892D",
"9. c #978A34",
"0. c #889738",
"q. c #99983A",
"w. c #878932",
"e. c #AA872C",
"r. c #B5842B",
"t. c #BC862C",
"y. c #A78B32",
"u. c #B48D31",
"i. c #BA8638",
"p. c #AC9235",
"a. c #A79A3B",
"s. c #B49A3C",
"d. c #B89539",
"f. c #98A13F",
"g. c #C4832C",
"h. c #CB822D",
"j. c #C9892D",
"k. c #D4842B",
"l. c #DB862B",
"z. c #DD892D",
"x. c #D5862B",
"c. c #C58232",
"v. c #CA8533",
"b. c #C48C33",
"n. c #CB8C3B",
"m. c #C88938",
"M. c #D38B33",
"N. c #DB8C33",
"B. c #D48B38",
"V. c #CB933B",
"C. c #C39B3D",
"Z. c #C89538",
"A. c #D39135",
"S. c #D5943B",
"D. c #DC943C",
"F. c #D9983C",
"G. c #E28D32",
"H. c #E39235",
"J. c #E3953A",
"K. c #E9963A",
"L. c #E49A3D",
"P. c #EC9B3D",
"I. c #E89436",
"U. c #E79335",
"Y. c #998852",
"T. c #B88745",
"R. c #B89944",
"E. c #A5965A",
"W. c #AE9251",
"Q. c #8FAA48",
"!. c #99B854",
"~. c #90B04D",
"^. c #A8A947",
"/. c #B8A747",
"(. c #B9B14E",
"). c #B9A55B",
"_. c #AAB957",
"`. c #B6BA57",
"'. c #A4B24F",
"]. c #BBA961",
"[. c #CB9746",
"{. c #D49C44",
"}. c #DC9C43",
"|. c #D69946",
" X c #C49654",
".X c #CC9249",
"XX c #E39C43",
"oX c #EC9D41",
"OX c #E69740",
"+X c #F09F40",
"@X c #C3A343",
"#X c #CBAC4A",
"$X c #C9A748",
"%X c #DCA24A",
"&X c #D8A748",
"*X c #C8B14D",
"=X c #D6B04E",
"-X c #DCAC52",
";X c #D5A956",
":X c #C7B756",
">X c #D9B958",
",X c #CBA75A",
"<X c #E4A245",
"1X c #EAA344",
"2X c #E4AA4B",
"3X c #EBAB4B",
"4X c #E8A54B",
"5X c #F3A344",
"6X c #F5AA4A",
"7X c #F9AC4A",
"8X c #F6A848",
"9X c #EBB14E",
"0X c #FDB14E",
"qX c #F6B14D",
"wX c #E9AA53",
"eX c #E4BC5D",
"rX c #E8B656",
"tX c #F3B453",
"yX c #FDB452",
"uX c #FFBA56",
"iX c #F3BC5A",
"pX c #FDBC5A",
"aX c #F2B856",
"sX c #F1AE59",
"dX c #D3B865",
"fX c #C5B163",
"gX c #E3BB62",
"hX c #B8C15E",
"jX c #ABC25D",
"kX c #94CB63",
"lX c #BAC762",
"zX c #B0D068",
"xX c #89C35D",
"cX c #CBC15E",
"vX c #D1C15F",
"bX c #F5C15E",
"nX c #ECC25E",
"mX c #C9C864",
"MX c #D7C766",
"NX c #C9D26B",
"BX c #D5D66E",
"VX c #E7C868",
"CX c #F8C865",
"ZX c #E7D36D",
"AX c #FED36C",
"SX c #F6D46D",
"DX c #EADA73",
"FX c #FEDB73",
"GX c #F5DA73",
"HX c #FDE479",
"JX c None",
/* pixels */
"JXJXJXJXJXJXJXJXJXJXJXJXJXJXJXJXJXJXJXJXJXJXJXJXJXJXJXJXJXJXJXJXJXJXJXJXJXJXJXJXJXJXJXJXJXJXJXJXJXJXJXJXJXJXJXJXJXJXJXJXJXJXJXJX",
"JXJXJXJXJXJXJXJXJXJXJXJXJXJXJXJXJXJXJXJXJXJXJXJXJXJXJXJXJXJXJXJXJXJXJXJXJXJXJXJXJXJXJXJXJXJXJXJXJXJXJXJXJXJXJXJXJXJXJXJXJXJXJXJX",
"JXJXJXJXJXJXJXJXJXJXJXJXJXJXJXJXJXJXJXJXJXJXJXJXJXJXJXVXdXfX].).).).,X,X>XJXJXJXJXJXJXJXJXJXJXJXJXJXJXJXJXJXJXJXJXJXJXJXJXJXJXJX",
"JXJXJXJXJXJXJXJXJXJXJXJXJXJXJXJXJXJXJXJXJXJXJXdX).Y.Y I g g 1 > ; ; < 9 C K <.W.;XJXJXJXJXJXJXJXJXJXJXJXJXJXJXJXJXJXJXJXJXJXJXJX",
"JXJXJXJXJXJXJXJXJXJXJXJXJXJXJXJXJXJXJXJXMX).T A ; % % q e t r t t j e r e & % ; 9 K T.%XJXJXJXJXJXJXJXJXJXJXJXJXJXJXJXJXJXJXJXJX",
"JXJXJXJXJXJXJXJXJXJXJXJXJXJXJXJXJXJXMXY.Z ; : r t h h t q e w u q q e t z t t r e % : A <.|.JXJXJXJXJXJXJXJXJXJXJXJXJXJXJXJXJXJX",
"JXJXJXJXJXJXJXJXJXJXJXJXJXJXJXJXZXE.Z ; % i z j r e s B Z U Y ,.,.K G Z g ; % r h t r q = N { }.JXJXJXJXJXJXJXJXJXJXJXJXJXJXJXJX",
"JXJXJXJXJXJXJXJXJXJXJXJXJXJXJXfXU ; e h z e e g U W.;XVXiXAXCXCXCXCXbXiXrX X2.G > % w h t e = N i.JXJXJXJXJXJXJXJXJXJXJXJXJXJXJX",
"JXJXJXJXJXJXJXJXJXJXJXJXJXJXE.B : k k t s Z Y.VXCXHXSXGXZXSXNXMXMXcXcXnXnXpXpXtX&X@.C : t w w % > ] JXJXJXJXJXJXJXJXJXJXJXJXJXJX",
"JXJXJXJXJXJXJXJXJXJXJXJXVX1.1 i z j p Z W.SXAXHXFXGXNXMXmXSXmX`.cXjX`.vX!.`.aXaXaXtX2X@.N % r t e = F n.JXJXJXJXJXJXJXJXJXJXJXJX",
"JXJXJXJXJXJXJXJXJXJXJXdXT ; u k t f Y.DXFXDXBXDXHXZXjXmXMXVXeX`._.nXbXnX~.~.=X9X*X*X9X6X%X[ > q j u = N c.JXJXJXJXJXJXJXJXJXJXJX",
"JXJXJXJXJXJXJXJXJXJXMXY 1 a t i Z dXAXHXNXkXzXVXCXZXmXvXhX>X:X!._.nXbXrX!.~.=X=X/.^.}.$X3X1Xm.N e j w 2 N >.JXJXJXJXJXJXJXJXJXJX",
"JXJXJXJXJXJXJXJXJXVXY = 1 : d T VXFXHXBXkXkXlXBXeXcXmX:XeXwXdXvX:XbXaX>X=X=XQ.^.$X^.d.q.{.%X1XD.F % = o 2 S -.JXJXJXJXJXJXJXJXJX",
"JXJXJXJXJXJXJXJXJX1., , 1 , 1.CXHXHXHXNXBXVXMXlXVX-X_.jX-X-X`.!.`.rX*X~.=X&X/.&X&X[.m.s.F.d.d.K.J.F * * * 2 S JXJXJXJXJXJXJXJXJX",
"JXJXJXJXJXJXJXJXE.< , 1 , 1.HXFXHXHXBXNXSXmXVXgX-X-X:XVX;X@X(._.=X*X(.#X(.{.^.%XR.C.b.V.J.A.A.j.N.N.( * 2 * X ) JXJXJXJXJXJXJXJX",
"JXJXJXJXJXJXJX].I , , 1 1.SXFXHXHXDXzXZXBXxXmXmX`.#X[.`.*X$X:X(.=X(./.#X^.d.^.C.a.p.g.J.Z.q.j.r.y.D.z.F * 2 2 - @.JXJXJXJXJXJXJX",
"JXJXJXJXJXJXZXY , , , U gXHXHXDXzXNXmXZXmXxXkXMXjX`.R.;XrX&XaX-X#X#X%X&Xs.d./.C.d.g.t.Z.A.8.^ e.7.t.H.A.8 2 X   8 B.JXJXJXJXJXJX",
"JXJXJXJXJXJXE., , , 9 dXFXDXzXBXNXNXmXlX:X`.lX`.jX~./.|.wX{.2X2X(.R.}.1XA.a.0.Z.j.t.u.p.z.&.e.e.x.x.G.H.>.- 2 2 * ` JXJXJXJXJXJX",
"JXJXJXJXJXdXU , , , Y.AXDXMXlXNXZXlXmXlXVXeX:X`.nX>XrXV.&X[.[.*X#XF.}.S.b.^.a.A.*.j.r.u.x.~ 7.7.t.l.j.A.K._ X     7 m.JXJXJXJXJX",
"JXJXJXJXJXE.< , , U SXFXMXMXmXkXZXlXMXVXVX_.rXsXbXrX(.[.n.m./.4.^.S.m.v.d.p.x.X.t.x.r.r.^ t.7.8.j.b.7.b.I.N.8     X ) JXJXJXJXJX",
"JXJXJXJXZXU , , , W.AXFXSXeX;XMXMX>XmXhX:X:XiX&X9X:X~.s.c.C./.Q./.V.O.D.L.M.X.r.p.*.e.~ ^ l.l.l.j.t.g.j.A.P.$.@     7 B.JXJXJXJX",
"JXJXJXJX].< , , U SXFXFXFXNX:X-XVXeXCXhX!.eX-X{.[.=X'.R.t.{.s.[.s.p.v.J.A.X.g.g./ h.g.! k.k./ / O.r.z.Z.q.L.D.N .   X $.JXJXJXJX",
"JXJXJXJXT , , , W.CXFXFXSXmXlXmX-X-XeX:X:XeX!./.Z.}.9X%Xi.R.R.a.s.d.h.B./ ^ &.^ r.t.! ! ! ^ g.e.u.q.G.H.Z.K.+X'       S JXJXJXJX",
"JXJXJXdXI , , I gXFXAXAXAXAXCXVXnX[.(.~.`.rX=X(.$Xn.4X<Xc.s.p.d.q.b.-.o.! ^ k.r.r./ ! ! r.8.j.p.b.j.p.A.U.K.P.A.-   . - .XJXJXJX",
"JXJXJX].< , , Y pXAXSXSXSXCXCXcX~.(.[.'.(.rX9X-X9XS.S.<Xt.Z.d.y.a.M.X.! e.g.r.j.h.! ! h.x.u.b.q.7.p.0.Z.K.P.+X+XS . 0 @ @.JXJXJX",
"JXJXJXE.d k d E.FXFXBX].`.mXCX>X_.`.$X/.(.rX(.^.3X<Xm.F.O.M.D.-.N.h.~ o.8.e.7.t.^ ! r.l.G.j.p.u.Z.u.a.I.P.P.+X+X' + 0 o ( JXJXJX",
"JXJXJXY p z f ,XCXZXlXfX!.`.VXiXaX:X-X[.2X/.^.[.S.<Xv.M.t.g.U.g.;.o.^ t.g.h.t.~ ! 8.5.u.Z.b.4.0.j.p.C.+XP.C.C.+Xm.: y + S JXJXJX",
"JXJXVXU i k I gXAXVX_.MX>X`.(.iXrX>X#X{.V.3X$X<XF.v.c.t.O.;.A.g.~ ! *.O.&.g.&.! k.p.8.u.p.u.p.u.r.d.F.Z.@X0.a.5X}.- y 0 7 %XJXJX",
"JXJXdXB i a I iXCXCXbXbX>X=X&X-X$X/.^.2XV.n.1X1X%XZ.O.X.o.X.7.y.! ! ^ X.x.=.! =.k.=.t.e.d.Z.A.k.A.p.f.a.s.a.$X5XP.7 y y @ [.JXJX",
"JXJXfXB a a Y CXCXCXnXnX!.:X=X2X%X[.m.}.<Xv.m.}.q.a.M.X.X.~ 8.r.^ ! / 8.r.~ ^ &.g.G.A.p.Z.Z.k.j.P.f.0.C.C.f.&X7X5XS y j @ .XJXJX",
"JXJX].B i d 1.pXCXbXeX>X'.(.#X&X}.{.n.t.V.F.O.t.9.q.A.*.! ! +.g.! ^ l.x.o.~ / j.p.F.K.d.p.g.j.p.C.s.s.L.L.@X1X7X5XF 0 y   T.JXJX",
"JXJX].< l a 1.iXbXeX~.~.^.^.-X<X<XF.S.n.g.>.O.X.+.y.d.l.~ Q &.k.! *.z.h.~ *.z.p.u.p.K.A.r.h.U.F.A.A.C.@X@X/.7X7X0XF O y o i.JXJX",
"JXJX).f l a ,.uXbX(.6.6.'.^.=XqX2X/.&XXXL.D.j.-.| | :.:.&.!  .:.~ *.l./ X.t.A.A.b.Z.H.h.-.k.M.N.P.1Xq.^.f./.qXqX+XD 0 y . i.JXJX",
"JXJX Xf t a ,.iXrX'.~.(.=X2X3X(./.q.a.C.L.L.Z.u.>.&.*.:.:.! ! :.~ *.h.^ e.4.p.x.N.M.-.o.-.-.v.N.J.J.C.S.Z.F.L.3X0XL O y . d.JXJX",
"JXJX XB a a Y yXaXaX9X9XqX3X@X4.0.s.Z.M.x.N.9.7.N.:.^ ! :./ ! *.^ / ^ o.N.Z.j.;.;.-.M.A.F.p.C.K.P.P.F.$X@X@X/.#X+XS 0 0 @  XJXJX",
"JXJX,XC a a Z wXaX9X9X3X3X1X$Xs.s.a.S.A.e.O.e.e.c.:.:.!  .*.~ / ^ ~ X.x.K.x.o.*.M.J.P.C.s.Q./.<X8X8X2X&X^.^.=XqX7XN y 0 # [.JXJX",
"JXJX-XI i k B -XtX9X3X3X1X&Xa.{.s.C.U.d.w.e.^ ~ ;.=.&.! ! / / ~ | | *.N.h.o.o.h.g.h.c.g.g.d.d.{.8X2X@XqXqX9X0X7XF.x y O 7 -XJXJX",
"JXJXJXY p l f [.qX3X2X1X1X}.0.s.5.L ' ..O.t.:.~ ! !  .| E E ! ~ | | -.X.E E %.} ' y.D.D.M.v.+.} j.{.$X#X*XqX0XbX.X+ j O N JXJXJX",
"JXJXJX<.p l p 2.qX3X1X<XF.q.0._ b 4 c 3 6 Q &.!  .:.l.} 5 3 } | |  .o.R 3 v v b x x ' 5X8XoX_ b ..@X&X$X#X9XyX8X$.O j o ] JXJXJX",
"JXJXJXT.< l a H 3X1X<XL.a.4.P c c _ ` W 3 3 E =.G.G.:.R m 5 R |  .o.o.E m ( 2.@.L c c B.7X8X@.b @.=X#X^.*X^.rXqXJ 0 q . @.JXJXJX",
"JXJXJX|.C a z B .X5XXXL.F...b b 9.|.N.i.L F 5.j.G.G.-.m ( n 5 &.o.o.O.} n ) 5X6XwX{ b ` 7X7X' c @.(.*X^.*X*X3X}.> y 0 - |.JXJXJX",
"JXJXJXJXY : z i 2.1XL.L.H.` 5 ` G.:.k.7.4.Y.p.j.G.G.%.5 3.` 3 Q o.o.O.} n E 1X5X7Xc.D ` 7X7X..b L *XyXyXuXuXpX{ o 0 + S JXJXJXJX",
"JXJXJXJX2.< i i J XXP.D.M.R v ..l.l.l.7.5.u.z.G.G.:.W n OX#.5 W o.o.>.+.n ( D.L.D.' n @.0X7X@.D 5.(.yXuXuXtX4XN O y o { JXJXJXJX",
"JXJXJXJX|.V d z d @.L.J.x.R 3 ! l.l.l.t.u.z.G.G.OX*.5 $.I.B.n 3 X.*.>.#.M n M M ( D ] 4X0X0X@.M y.tXuXuXuXuXi.+ j O 4 |.JXJXJXJX",
"JXJXJXJXJX[ 1 k l C D.OXz.%.6 E l.l.z.G.z.z.H.U.I.E m n R ) 5 3 ` -.:.#.W ( [ [ ( D |.yXyXyX@.M i.uXuXuX7XXXN 0 y o ] JXJXJXJXJX",
"JXJXJXJXJX.XC i k d [ G.G.o.5 5 o.G.G.G.X.R g.I.>.n D [ [ [ ( 3 m -.>.#.D _ sXwX[ n @.yX0XyX@.D i.pXuXyXyX{ % j O - |.JXJXJXJXJX",
"JXJXJXJXJXJX[ , a a 9 >.OXB.` 5 5 E } E n 5 ..I.} m [ oX4XwX.X5 3 | >.#.D _ 8X0X|.( F }.uXyX@.D i.uXuX7Xn.> & 0 o [ JXJXJXJXJXJX",
"JXJXJXJXJXJXm.S p a i V :.U.D.$.W 5 5 m D 3.OXG.( v v.+X+X+X>.D 3 ( >.+.M ` 7X0XtX3.M _ 0XuX#.D T.uX6X4XN 0 j o 8 XXJXJXJXJXJXJX",
"JXJXJXJXJXJXJX@.7 i k i H D.G.OX.X3.@.T.OXOXK.K.T.T.OX+X+XoX>.#.[ @.-..X X.X0X0XyXsX X XsXuX;X X-XyX5XH + j 0 # i.JXJXJXJXJXJXJX",
"JXJXJXJXJXJXJXJX_ ; i k : ] J.J.H.K.OXOXK.OXP.P.5X5X+X+X5XJ.-.>.m.c.-.B.yXyX0X0XyXyXpXpXuXuXuXpX0XOX] $ q q @ ] JXJXJXJXJXJXJXJX",
"JXJXJXJXJXJXJXJXJXF ; l k s ] H.P.K.I.K.K.P.P.P.+X+X5X5X5XJ.=.>.>.>.c.B.6XyXyXyXyXuXuXuXuXuXuX8X7X] % y q + J JXJXJXJXJXJXJXJXJX",
"JXJXJXJXJXJXJXJXJXB.S : h k s H D.P.P.P.+XOXP.+X+X5X5X5X8XD.>.v.v.>.c.v.8XyXyXyXuXuXuXuXyX0X7XXXH + q t o N |.JXJXJXJXJXJXJXJXJX",
"JXJXJXJXJXJXJXJXJXJXv.V : k k % V m.oXoXoXoX+X+X+X5X8X8X8XB.>.>.v.v.v.v.1XuXuXuXuXuXuXyX6X6X.XV % q r o N n.JXJXJXJXJXJXJXJXJXJX",
"JXJXJXJXJXJXJXJXJXJXJXm.J : p k u g [ OX+X5X5X5X5X5X8X8X8X:.>.>.v.v.v.v.XXuXuXuXuXuXsXyX}.2.> & j q o N [.JXJXJXJXJXJXJXJXJXJXJX",
"JXJXJXJXJXJXJXJXJXJXJXJXB.H ; w z t p C #.OX5X5X8X8X8X7X8Xv.>.>.>.v.v.B.XXuXuXuX7XyXOXT.N % q j 0 * F |.JXJXJXJXJXJXJXJXJXJXJXJX",
"JXJXJXJXJXJXJXJXJXJXJXJXJXJX[ 7 % t z t : V @.|.8X8X7X7X6XOX|.D.OX|.XXXX3XuX8XyX|.2.V : q r q $ - _ JXJXJXJXJXJXJXJXJXJXJXJXJXJX",
"JXJXJXJXJXJXJXJXJXJXJXJXJXJXJX#.V ; i j j t e 9 H @..XXX5X6X6X0X6XyX8XyXXX|.2.G 9 % y j t & = N #.JXJXJXJXJXJXJXJXJXJXJXJXJXJXJX",
"JXJXJXJXJXJXJXJXJXJXJXJXJXJXJXJXXX[ 8 : % w u % * = , 9 V G ] ,.] ] U V 9 - * * 2 w h & $ 7 [ }.JXJXJXJXJXJXJXJXJXJXJXJXJXJXJXJX",
"JXJXJXJXJXJXJXJXJXJXJXJXJXJXJXJXJXJX|.{ C ; % = * * = * * * * * 2 2 $ * * * * * * $ = 8 ] |.JXJXJXJXJXJXJXJXJXJXJXJXJXJXJXJXJXJX",
"JXJXJXJXJXJXJXJXJXJXJXJXJXJXJXJXJXJXJXJX|.2.H 9 , * * * * * = = * * * * * * * * 7 J 2.|.JXJXJXJXJXJXJXJXJXJXJXJXJXJXJXJXJXJXJXJX",
"JXJXJXJXJXJXJXJXJXJXJXJXJXJXJXJXJXJXJXJXJXJXJX|.3.,.G 8 < > - - = = - < 8 G ] 2.[.JXJXJXJXJXJXJXJXJXJXJXJXJXJXJXJXJXJXJXJXJXJXJX",
"JXJXJXJXJXJXJXJXJXJXJXJXJXJXJXJXJXJXJXJXJXJXJXJXJXJXJXwX%X XT.T.T.T..X|.%XJXJXJXJXJXJXJXJXJXJXJXJXJXJXJXJXJXJXJXJXJXJXJXJXJXJXJX",
"JXJXJXJXJXJXJXJXJXJXJXJXJXJXJXJXJXJXJXJXJXJXJXJXJXJXJXJXJXJXJXJXJXJXJXJXJXJXJXJXJXJXJXJXJXJXJXJXJXJXJXJXJXJXJXJXJXJXJXJXJXJXJXJX",
"JXJXJXJXJXJXJXJXJXJXJXJXJXJXJXJXJXJXJXJXJXJXJXJXJXJXJXJXJXJXJXJXJXJXJXJXJXJXJXJXJXJXJXJXJXJXJXJXJXJXJXJXJXJXJXJXJXJXJXJXJXJXJXJX"
};
